<svg width="12" height="12" viewBox="0 0 12 12" fill="none" xmlns="http://www.w3.org/2000/svg">
<g id="star-01">
<path id="Solid" d="M6.32279 0.887466C6.11862 0.790116 5.88141 0.790116 5.67723 0.887466C5.50072 0.971623 5.4034 1.11774 5.35433 1.1979C5.30359 1.28077 5.25151 1.38634 5.20075 1.48923L4.12288 3.67287L1.71185 4.02528C1.59836 4.04184 1.48191 4.05884 1.38745 4.08156C1.29607 4.10353 1.12711 4.15105 0.992657 4.29297C0.837112 4.45716 0.76396 4.68277 0.793571 4.90698C0.819166 5.1008 0.928088 5.23842 0.989188 5.30984C1.05235 5.38366 1.13667 5.46576 1.21885 5.54577L2.96275 7.24432L2.55127 9.64346C2.53184 9.75658 2.51192 9.87263 2.50424 9.96952C2.49682 10.0632 2.48965 10.2387 2.583 10.4105C2.69098 10.6093 2.88292 10.7488 3.10535 10.79C3.29766 10.8256 3.4623 10.7646 3.54912 10.7286C3.63889 10.6913 3.7431 10.6365 3.84468 10.583L6.00001 9.44956L8.15535 10.583C8.25693 10.6365 8.36114 10.6913 8.45091 10.7286C8.53773 10.7646 8.70237 10.8256 8.89467 10.79C9.11711 10.7488 9.30904 10.6093 9.41702 10.4105C9.51037 10.2387 9.5032 10.0632 9.49578 9.96952C9.48811 9.87263 9.46818 9.75659 9.44876 9.64348L9.03727 7.24432L10.7812 5.54575C10.8634 5.46574 10.9477 5.38365 11.0108 5.30984C11.0719 5.23842 11.1809 5.1008 11.2065 4.90698C11.2361 4.68277 11.1629 4.45716 11.0074 4.29297C10.8729 4.15105 10.704 4.10353 10.6126 4.08156C10.5181 4.05884 10.4017 4.04184 10.2882 4.02528L7.87714 3.67287L6.7993 1.48927C6.74853 1.38637 6.69644 1.28078 6.6457 1.1979C6.59662 1.11774 6.4993 0.971623 6.32279 0.887466Z" fill="#231F20"/>
</g>
</svg>
