<svg width="9" height="9" viewBox="0 0 9 9" fill="none" xmlns="http://www.w3.org/2000/svg">
<g id="star-01">
<path id="Solid" d="M4.74161 0.666088C4.58847 0.593075 4.41057 0.593075 4.25743 0.666088C4.12505 0.729206 4.05207 0.838795 4.01526 0.898915C3.97721 0.961067 3.93814 1.04024 3.90007 1.11741L3.09167 2.75514L1.2834 3.01945C1.19828 3.03187 1.11094 3.04462 1.0401 3.06165C0.971562 3.07813 0.844846 3.11378 0.744005 3.22022C0.627345 3.34336 0.572482 3.51256 0.59469 3.68073C0.613886 3.82609 0.695578 3.92931 0.741403 3.98287C0.788772 4.03823 0.852016 4.09981 0.913652 4.15982L2.22158 5.43373L1.91296 7.23308C1.8984 7.31792 1.88345 7.40496 1.8777 7.47763C1.87213 7.5479 1.86675 7.67949 1.93676 7.80839C2.01775 7.95748 2.1617 8.06206 2.32853 8.09298C2.47275 8.11972 2.59624 8.07392 2.66135 8.04691C2.72868 8.01897 2.80684 7.97785 2.88302 7.93776L4.49952 7.08766L6.11603 7.93777C6.19221 7.97785 6.27037 8.01897 6.33769 8.04691C6.40281 8.07392 6.52629 8.11972 6.67052 8.09298C6.83734 8.06206 6.9813 7.95748 7.06228 7.80839C7.13229 7.67949 7.12691 7.5479 7.12135 7.47763C7.11559 7.40496 7.10065 7.31793 7.08608 7.2331L6.77747 5.43373L8.0854 4.1598C8.14704 4.0998 8.21027 4.03823 8.25764 3.98287C8.30346 3.92931 8.38516 3.82609 8.40435 3.68073C8.42656 3.51256 8.3717 3.34336 8.25504 3.22022C8.1542 3.11378 8.02748 3.07813 7.95894 3.06165C7.8881 3.04462 7.80076 3.03187 7.71564 3.01945L5.90737 2.75514L5.09898 1.11744C5.06091 1.04026 5.02184 0.961072 4.98378 0.898915C4.94698 0.838795 4.87399 0.729206 4.74161 0.666088Z" fill="#231F20"/>
</g>
</svg>
